<?xml version="1.0" encoding="utf-8"?>
<!-- Generator: Adobe Illustrator 22.1.0, SVG Export Plug-In . SVG Version: 6.00 Build 0)  -->
<svg version="1.1" id="图层_1" xmlns="http://www.w3.org/2000/svg" xmlns:xlink="http://www.w3.org/1999/xlink" x="0px" y="0px"
	 viewBox="0 0 23 23" style="enable-background:new 0 0 23 23;" xml:space="preserve">
<g>
	<path d="M9.2,23.1c-1.3,0-2.6,0-3.9,0c-0.8,0-1-0.2-1.1-1C3.8,17.4,3.4,12.8,3,8.1C2.9,7.3,3.1,7.1,3.9,7C4.6,7,5.3,7,6,7
		c0.4,0,0.6-0.1,0.5-0.6C6.2,5.2,6,3.9,5.7,2.7C5.7,2.4,5.5,2.2,5.2,2.1C4.5,1.9,3.7,1.7,3,1.4C2.5,1.2,2.2,0.9,2.4,0.6
		c0.2-0.5,0.6-0.5,1-0.3C4.3,0.5,5.1,0.8,6,1c0.5,0.1,0.8,0.4,0.9,1c0.3,1.5,0.6,3,0.9,4.5C7.9,6.9,8.1,7,8.5,7
		c0.4,0,0.6-0.2,0.7-0.6c0.6-2.9,3.2-4.8,6.1-4.6c3.1,0.2,5.4,2.6,5.5,5.7c0.1,3.1-2.1,5.4-4.8,5.9c-0.9,0.2-0.9,0.2-1,1.1
		c-0.2,2.6-0.4,5.2-0.7,7.8c-0.1,0.6-0.3,0.8-1,0.8C11.9,23.1,10.5,23.1,9.2,23.1z M9.2,12.4c-1.3,0-2.6,0-4,0
		c-0.5,0-0.7,0.2-0.6,0.7c0.1,0.8,0.1,1.5,0.2,2.3c0.2,2,0.4,3.9,0.5,5.9c0,0.4,0.2,0.5,0.5,0.5c2.2,0,4.4,0,6.5,0
		c0.4,0,0.6-0.2,0.6-0.6c0-0.4,0-0.7,0.1-1.1c0.2-2.4,0.4-4.7,0.6-7.1c0-0.5-0.1-0.7-0.6-0.6C11.8,12.4,10.5,12.4,9.2,12.4z M12.7,7
		c0.6,0,1.2,0,1.8,0c0.8,0,1,0.2,1,1c-0.1,1.2-0.2,2.4-0.3,3.6c0,0.4,0,0.6,0.6,0.5c2.4-0.4,4.1-2.8,3.7-5.3C19,4.8,17.2,3.2,15,3.1
		c-2-0.1-4,1.3-4.6,3.3C10.3,6.9,10.4,7,10.9,7C11.5,7,12.1,7,12.7,7z M9.2,8.3c-1.4,0-2.8,0-4.2,0c-0.7,0-0.7,0-0.7,0.7
		c0,0.5,0.1,1.1,0.1,1.6c0,0.3,0.1,0.5,0.5,0.5c2.8,0,5.7,0,8.5,0c0.3,0,0.5-0.1,0.5-0.5c0-0.6,0.1-1.2,0.1-1.8
		c0.1-0.5-0.1-0.6-0.5-0.6C12.1,8.4,10.7,8.3,9.2,8.3z"/>
</g>
</svg>
